HIERARCHY
ROOT root
{
  OFFSET 0 79.8113 0
  CHANNELS 6 Xposition Yposition Zposition Zrotation Xrotation Yrotation
  JOINT torso_1
  {
    OFFSET 0 4.34476 -0.984994
    CHANNELS 6 Xposition Yposition Zposition Zrotation Xrotation Yrotation
    JOINT torso_2
    {
      OFFSET 0 4.80497 0.916596
      CHANNELS 6 Xposition Yposition Zposition Zrotation Xrotation Yrotation
      JOINT torso_3
      {
        OFFSET -8.77771e-18 5.1242 0.0983897
        CHANNELS 6 Xposition Yposition Zposition Zrotation Xrotation Yrotation
        JOINT torso_4
        {
          OFFSET -9.44946e-18 5.56568 -0.37943
          CHANNELS 6 Xposition Yposition Zposition Zrotation Xrotation Yrotation
          JOINT torso_5
          {
            OFFSET -1.68784e-17 6.50642 -1.28831
            CHANNELS 6 Xposition Yposition Zposition Zrotation Xrotation Yrotation
            JOINT torso_6
            {
              OFFSET -2.16702e-17 8.12491 -0.78234
              CHANNELS 6 Xposition Yposition Zposition Zrotation Xrotation Yrotation
              JOINT torso_7
              {
                OFFSET -2.48435e-17 9.02658 1.34903
                CHANNELS 6 Xposition Yposition Zposition Zrotation Xrotation Yrotation
                JOINT neck_1
                {
                  OFFSET -1.10523e-17 4.09476 0.611966
                  CHANNELS 6 Xposition Yposition Zposition Zrotation Xrotation Yrotation
                  JOINT neck_2
                  {
                    OFFSET -1.54981e-17 4.1244 0.360838
                    CHANNELS 6 Xposition Yposition Zposition Zrotation Xrotation Yrotation
                    JOINT head
                    {
                      OFFSET -1.71918e-17 4.13237 0.654504
                      CHANNELS 6 Xposition Yposition Zposition Zrotation Xrotation Yrotation
                      End Site
                      {
                        OFFSET 0 0.1 0
                      }
                    }
                  }
                }
                JOINT l_shoulder
                {
                  OFFSET 1.05481 -6.50798 6.44505
                  CHANNELS 6 Xposition Yposition Zposition Zrotation Xrotation Yrotation
                  JOINT l_up_arm
                  {
                    OFFSET 11.0826 2.77992 -2.79636
                    CHANNELS 6 Xposition Yposition Zposition Zrotation Xrotation Yrotation
                    JOINT l_low_arm
                    {
                      OFFSET 24.9873 0.0511653 0.117236
                      CHANNELS 6 Xposition Yposition Zposition Zrotation Xrotation Yrotation
                      JOINT l_hand
                      {
                        OFFSET 20.7319 0.0424511 0.0972706
                        CHANNELS 6 Xposition Yposition Zposition Zrotation Xrotation Yrotation
                        End Site
                        {
                          OFFSET 0.1 0 0
                        }
                      }
                    }
                  }
                }
                JOINT r_shoulder
                {
                  OFFSET -1.05481 -6.50797 6.44497
                  CHANNELS 6 Xposition Yposition Zposition Zrotation Xrotation Yrotation
                  JOINT r_up_arm
                  {
                    OFFSET -11.0826 2.77992 -2.79636
                    CHANNELS 6 Xposition Yposition Zposition Zrotation Xrotation Yrotation
                    JOINT r_low_arm
                    {
                      OFFSET -24.9873 0.0511653 0.117236
                      CHANNELS 6 Xposition Yposition Zposition Zrotation Xrotation Yrotation
                      JOINT r_hand
                      {
                        OFFSET -20.7319 0.042451 0.0972707
                        CHANNELS 6 Xposition Yposition Zposition Zrotation Xrotation Yrotation
                        End Site
                        {
                          OFFSET -0.1 0 0
                        }
                      }
                    }
                  }
                }
              }
            }
          }
        }
      }
    }
  }
  JOINT l_up_leg
  {
    OFFSET 7.90195 -3.59782 1.73896
    CHANNELS 6 Xposition Yposition Zposition Zrotation Xrotation Yrotation
    JOINT l_low_leg
    {
      OFFSET -0.72918 -33.1692 -0.560506
      CHANNELS 6 Xposition Yposition Zposition Zrotation Xrotation Yrotation
      JOINT l_foot
      {
        OFFSET -1.99006 -34.5633 -5.17465
        CHANNELS 6 Xposition Yposition Zposition Zrotation Xrotation Yrotation
        JOINT l_toes
        {
          OFFSET 0.66651 -8.45602 10.6902
          CHANNELS 6 Xposition Yposition Zposition Zrotation Xrotation Yrotation
          End Site
          {
            OFFSET 0 0 0.1
          }
        }
      }
    }
  }
  JOINT r_up_leg
  {
    OFFSET -7.90195 -3.59782 1.73896
    CHANNELS 6 Xposition Yposition Zposition Zrotation Xrotation Yrotation
    JOINT r_low_leg
    {
      OFFSET 0.72918 -33.1692 -0.560506
      CHANNELS 6 Xposition Yposition Zposition Zrotation Xrotation Yrotation
      JOINT r_foot
      {
        OFFSET 1.99006 -34.5633 -5.17465
        CHANNELS 6 Xposition Yposition Zposition Zrotation Xrotation Yrotation
        JOINT r_toes
        {
          OFFSET -0.66651 -8.45602 10.6902
          CHANNELS 6 Xposition Yposition Zposition Zrotation Xrotation Yrotation
          End Site
          {
            OFFSET 0 0 0.1
          }
        }
      }
    }
  }
}
MOTION
Frames: 4
Frame Time: 0.020000
0 79.8113 0 -0 0 -0 0 4.34476 -0.984994 -0 0 -0 0 4.80497 0.916596 -0 0 -0 -8.77771e-18 5.1242 0.0983897 -0 0 -0 -9.44946e-18 5.56568 -0.37943 -0 0 -0 -1.68784e-17 6.50642 -1.28831 -0 0 -0 -2.16702e-17 8.12491 -0.78234 -0 0 -0 -2.48435e-17 9.02658 1.34903 -0 0 -0 -1.10523e-17 4.09476 0.611966 -0 0 -0 -1.54981e-17 4.1244 0.360838 -0 0 -0 -1.71918e-17 4.13237 0.654504 -0 0 -0 1.05481 -6.50798 6.44505 -0 0 -0 11.0826 2.77992 -2.79636 -0 0 -0 24.9873 0.0511653 0.117236 -0 0 -0 20.7319 0.0424511 0.0972706 -0 0 -0 -1.05481 -6.50797 6.44497 -0 0 -0 -11.0826 2.77992 -2.79636 -0 0 -0 -24.9873 0.0511653 0.117236 -0 0 -0 -20.7319 0.042451 0.0972707 -0 0 -0 7.90195 -3.59782 1.73896 -0 0 -0 -0.72918 -33.1692 -0.560506 -0 0 -0 -1.99006 -34.5633 -5.17465 -0 0 -0 0.66651 -8.45602 10.6902 -0 0 -0 -7.90195 -3.59782 1.73896 -0 0 -0 0.72918 -33.1692 -0.560506 -0 0 -0 1.99006 -34.5633 -5.17465 -0 0 -0 -0.66651 -8.45602 10.6902 -0 0 -0 
315.678 78.53 435.65 5.0407 -4.36689 60.5159 0 4.34476 -0.984994 -0.436224 2.80838 0.329401 0 4.80497 0.916596 -0.125857 2.54045 0.181574 -8.77771e-18 5.1242 0.0983897 -5.15649e-05 2.66635 0.24996 -9.44946e-18 5.56568 -0.37943 0.0897083 2.31439 0.282561 -1.68784e-17 6.50642 -1.28831 0.258822 1.68588 0.241772 -2.16702e-17 8.12491 -0.78234 0.500503 1.44979 -0.068974 -2.48435e-17 9.02658 1.34903 -0.0705279 1.01683 0.0967393 -1.10523e-17 4.09476 0.611966 -0.0186131 -3.70409 -3.48869 -1.54981e-17 4.1244 0.360838 0.515741 -6.96054 -1.74111 -1.71918e-17 4.13237 0.654504 1.26069 -6.60316 0.419512 1.05481 -6.50798 6.44505 -2.55137 4.37519 -3.8144 11.0826 2.77992 -2.79636 -82.2241 20.6488 -5.90753 24.9873 0.0511653 0.117236 1.68514 -0.111309 -8.1472 20.7319 0.0424511 0.0972706 1.95944 -22.4468 -2.65092 -1.05481 -6.50797 6.44497 5.30235 6.02428 3.90642 -11.0826 2.77992 -2.79636 79.0873 16.1015 5.44483 -24.9873 0.0511653 0.117236 -0.904609 -0.0296704 4.36317 -20.7319 0.042451 0.0972707 -1.58158 8.18777 4.60637 7.90195 -3.59782 1.73896 -0.603834 -0.962803 -23.5017 -0.72918 -33.1692 -0.560506 -1.46639 5.4728 -0.0255047 -1.99006 -34.5633 -5.17465 2.52333 -3.46207 15.1793 0.66651 -8.45602 10.6902 2.48481e-17 -7.95139e-16 1.2424e-17 -7.90195 -3.59782 1.73896 -0.474082 2.88023 12.8348 0.72918 -33.1692 -0.560506 1.58606 5.91788 0.021397 1.99006 -34.5633 -5.17465 -2.52635 -4.94512 -15.1506 -0.66651 -8.45602 10.6902 -5.52946e-16 -5.61795e-16 -1.27484e-14 
315.681 78.5283 435.646 5.04326 -4.36587 60.5213 0 4.34476 -0.984994 -0.435608 2.79798 0.329704 0 4.80497 0.916596 -0.125768 2.53476 0.18225 -8.77771e-18 5.1242 0.0983897 -0.000199403 2.6657 0.250843 -9.44946e-18 5.56568 -0.37943 0.0892939 2.32228 0.283508 -1.68784e-17 6.50642 -1.28831 0.258356 1.69821 0.242794 -2.16702e-17 8.12491 -0.78234 0.50028 1.46487 -0.0678514 -2.48435e-17 9.02658 1.34903 -0.0700507 1.01482 0.0965689 -1.10523e-17 4.09476 0.611966 -0.0076187 -3.68034 -3.42518 -1.54981e-17 4.1244 0.360838 0.508559 -6.96652 -1.71209 -1.71918e-17 4.13237 0.654504 1.23219 -6.62278 0.43478 1.05481 -6.50798 6.44505 -2.5177 4.35741 -3.80525 11.0826 2.77992 -2.79636 -82.2281 20.7104 -5.94536 24.9873 0.0511653 0.117236 1.68502 -0.111293 -8.14663 20.7319 0.0424511 0.0972706 1.94569 -22.4508 -2.63787 -1.05481 -6.50797 6.44497 5.29599 6.01205 3.90379 -11.0826 2.77992 -2.79636 79.0758 16.1167 5.45634 -24.9873 0.0511653 0.117236 -0.902535 -0.0295231 4.35315 -20.7319 0.042451 0.0972707 -1.57216 8.15807 4.59877 7.90195 -3.59782 1.73896 -0.612592 -0.963534 -23.4764 -0.72918 -33.1692 -0.560506 -1.46816 5.47941 -0.0254505 -1.99006 -34.5633 -5.17465 2.53036 -3.46642 15.1783 0.66651 -8.45602 10.6902 2.48481e-17 -7.95139e-16 1.2424e-17 -7.90195 -3.59782 1.73896 -0.479196 2.87679 12.8409 0.72918 -33.1692 -0.560506 1.58944 5.93044 0.0212675 1.99006 -34.5633 -5.17465 -2.52959 -4.95435 -15.152 -0.66651 -8.45602 10.6902 -2.42193e-16 -5.81217e-16 -1.27581e-14 
315.684 78.5272 435.642 5.05462 -4.3605 60.5214 0 4.34476 -0.984994 -0.438145 2.79179 0.329845 0 4.80497 0.916596 -0.128036 2.53192 0.182283 -8.77771e-18 5.1242 0.0983897 -0.00201768 2.66656 0.251093 -9.44946e-18 5.56568 -0.37943 0.0879147 2.32966 0.283843 -1.68784e-17 6.50642 -1.28831 0.257596 1.70863 0.243336 -2.16702e-17 8.12491 -0.78234 0.500416 1.47718 -0.0674603 -2.48435e-17 9.02658 1.34903 -0.0696384 1.01325 0.0964699 -1.10523e-17 4.09476 0.611966 0.00208215 -3.66715 -3.36953 -1.54981e-17 4.1244 0.360838 0.505789 -6.96465 -1.68659 -1.71918e-17 4.13237 0.654504 1.21752 -6.62068 0.446888 1.05481 -6.50798 6.44505 -2.49161 4.3453 -3.80073 11.0826 2.77992 -2.79636 -82.2316 20.7552 -5.98369 24.9873 0.0511653 0.117236 1.6836 -0.111098 -8.13975 20.7319 0.0424511 0.0972706 1.94318 -22.4525 -2.61545 -1.05481 -6.50797 6.44497 5.29411 6.00439 3.90648 -11.0826 2.77992 -2.79636 79.0568 16.1207 5.47232 -24.9873 0.0511653 0.117236 -0.899908 -0.0293371 4.34046 -20.7319 0.042451 0.0972707 -1.55698 8.14164 4.58744 7.90195 -3.59782 1.73896 -0.628371 -0.953109 -23.4581 -0.72918 -33.1692 -0.560506 -1.46698 5.47501 -0.0254865 -1.99006 -34.5633 -5.17465 2.53007 -3.46221 15.1777 0.66651 -8.45602 10.6902 2.48481e-17 -7.95139e-16 1.2424e-17 -7.90195 -3.59782 1.73896 -0.493343 2.8717 12.8588 0.72918 -33.1692 -0.560506 1.59613 5.95532 0.0210087 1.99006 -34.5633 -5.17465 -2.52946 -4.96839 -15.1538 -0.66651 -8.45602 10.6902 -5.52946e-16 -5.61795e-16 -1.27484e-14 
